<svg id="visual" viewBox="0 0 900 600" width="900" height="600" xmlns="http://www.w3.org/2000/svg" xmlns:xlink="http://www.w3.org/1999/xlink" version="1.1"><rect x="0" y="0" width="900" height="600" fill="#001220"></rect><path d="M0 380L21.5 377C43 374 86 368 128.8 364.3C171.7 360.7 214.3 359.3 257.2 372C300 384.7 343 411.3 385.8 410.2C428.7 409 471.3 380 514.2 375.8C557 371.7 600 392.3 642.8 401.7C685.7 411 728.3 409 771.2 403.2C814 397.3 857 387.7 878.5 382.8L900 378L900 601L878.5 601C857 601 814 601 771.2 601C728.3 601 685.7 601 642.8 601C600 601 557 601 514.2 601C471.3 601 428.7 601 385.8 601C343 601 300 601 257.2 601C214.3 601 171.7 601 128.8 601C86 601 43 601 21.5 601L0 601Z" fill="#fa7268"></path><path d="M0 441L21.5 435.7C43 430.3 86 419.7 128.8 420.3C171.7 421 214.3 433 257.2 434.2C300 435.3 343 425.7 385.8 426.5C428.7 427.3 471.3 438.7 514.2 437.3C557 436 600 422 642.8 412.7C685.7 403.3 728.3 398.7 771.2 410.5C814 422.3 857 450.7 878.5 464.8L900 479L900 601L878.5 601C857 601 814 601 771.2 601C728.3 601 685.7 601 642.8 601C600 601 557 601 514.2 601C471.3 601 428.7 601 385.8 601C343 601 300 601 257.2 601C214.3 601 171.7 601 128.8 601C86 601 43 601 21.5 601L0 601Z" fill="#ef5f67"></path><path d="M0 465L21.5 463.5C43 462 86 459 128.8 465.8C171.7 472.7 214.3 489.3 257.2 487.8C300 486.3 343 466.7 385.8 460.5C428.7 454.3 471.3 461.7 514.2 470.3C557 479 600 489 642.8 490C685.7 491 728.3 483 771.2 474.8C814 466.7 857 458.3 878.5 454.2L900 450L900 601L878.5 601C857 601 814 601 771.2 601C728.3 601 685.7 601 642.8 601C600 601 557 601 514.2 601C471.3 601 428.7 601 385.8 601C343 601 300 601 257.2 601C214.3 601 171.7 601 128.8 601C86 601 43 601 21.5 601L0 601Z" fill="#e34c67"></path><path d="M0 509L21.5 507.3C43 505.7 86 502.3 128.8 507.2C171.7 512 214.3 525 257.2 527.5C300 530 343 522 385.8 521.8C428.7 521.7 471.3 529.3 514.2 531C557 532.7 600 528.3 642.8 527.5C685.7 526.7 728.3 529.3 771.2 531.2C814 533 857 534 878.5 534.5L900 535L900 601L878.5 601C857 601 814 601 771.2 601C728.3 601 685.7 601 642.8 601C600 601 557 601 514.2 601C471.3 601 428.7 601 385.8 601C343 601 300 601 257.2 601C214.3 601 171.7 601 128.8 601C86 601 43 601 21.5 601L0 601Z" fill="#d53867"></path><path d="M0 569L21.5 567C43 565 86 561 128.8 555.7C171.7 550.3 214.3 543.7 257.2 538.2C300 532.7 343 528.3 385.8 530.2C428.7 532 471.3 540 514.2 547.2C557 554.3 600 560.7 642.8 557C685.7 553.3 728.3 539.7 771.2 537.3C814 535 857 544 878.5 548.5L900 553L900 601L878.5 601C857 601 814 601 771.2 601C728.3 601 685.7 601 642.8 601C600 601 557 601 514.2 601C471.3 601 428.7 601 385.8 601C343 601 300 601 257.2 601C214.3 601 171.7 601 128.8 601C86 601 43 601 21.5 601L0 601Z" fill="#c62368"></path></svg>